<?xml version="1.0" encoding="utf-8"?>
<!-- Generator: Adobe Illustrator 27.0.0, SVG Export Plug-In . SVG Version: 6.00 Build 0)  -->
<svg version="1.1" id="Layer_1" xmlns="http://www.w3.org/2000/svg" xmlns:xlink="http://www.w3.org/1999/xlink" x="0px" y="0px"
	 viewBox="0 0 1920 1080" style="enable-background:new 0 0 1920 1080;" xml:space="preserve">
<style type="text/css">
	.st0{fill:url(#SVGID_1_);stroke:#000D45;stroke-miterlimit:10;}
	.st1{fill:url(#SVGID_00000055666364854012628510000001830958846337573804_);stroke:#000D45;stroke-miterlimit:10;}
	.st2{fill:url(#SVGID_00000091011614656233720580000016934082870660608908_);stroke:#000D45;stroke-miterlimit:10;}
	.st3{fill:url(#SVGID_00000163046238341087289550000007173608524474094224_);stroke:#000D45;stroke-miterlimit:10;}
	.st4{fill:url(#SVGID_00000177454673728016818680000007004046973692655030_);stroke:#000D45;stroke-miterlimit:10;}
	.st5{fill:url(#SVGID_00000164510288747178842910000010248348032003598243_);stroke:#000D45;stroke-miterlimit:10;}
	.st6{fill:url(#SVGID_00000012432435267028468510000015002252266782555793_);stroke:#000D45;stroke-miterlimit:10;}
	.st7{fill:url(#SVGID_00000165199845637410568940000018260132502271387279_);stroke:#000D45;stroke-miterlimit:10;}
	.st8{fill:url(#SVGID_00000035496485153057051950000015978949836464956306_);stroke:#000D45;stroke-miterlimit:10;}
	.st9{fill:url(#SVGID_00000134935014216148413190000001972355989673509261_);stroke:#000D45;stroke-miterlimit:10;}
	.st10{fill:url(#SVGID_00000014630915036820592360000015475482795201655957_);stroke:#000D45;stroke-miterlimit:10;}
	.st11{fill:url(#SVGID_00000039851546831785762540000009772475723483557052_);stroke:#000D45;stroke-miterlimit:10;}
	.st12{fill:url(#SVGID_00000043421546886689964250000010133220531957957011_);stroke:#000D45;stroke-miterlimit:10;}
	.st13{fill:url(#SVGID_00000040562246322246323210000008018913762278038159_);stroke:#000D45;stroke-miterlimit:10;}
	.st14{fill:url(#SVGID_00000099663929581068386510000014833761896136259727_);stroke:#000D45;stroke-miterlimit:10;}
	.st15{fill:url(#SVGID_00000022528461833735536200000011628566721951804042_);stroke:#000D45;stroke-miterlimit:10;}
	.st16{fill:url(#SVGID_00000160893795058554468460000008460514743677736837_);stroke:#000D45;stroke-miterlimit:10;}
	.st17{fill:none;stroke:#000D45;stroke-miterlimit:10;}
	.st18{fill:#F935DE;stroke:#000D45;stroke-miterlimit:10;}
</style>
<g>
	<linearGradient id="SVGID_1_" gradientUnits="userSpaceOnUse" x1="502.8241" y1="589.4943" x2="559.2947" y2="339.6119">
		<stop  offset="9.776536e-02" style="stop-color:#F9308C"/>
		<stop  offset="0.6998" style="stop-color:#FD8056"/>
		<stop  offset="1" style="stop-color:#FFA33F"/>
		<stop  offset="1" style="stop-color:#FF9C52;stop-opacity:0.8507"/>
		<stop  offset="1" style="stop-color:#FF8493;stop-opacity:0.31"/>
		<stop  offset="1" style="stop-color:#FF7BAC;stop-opacity:5.492697e-02"/>
	</linearGradient>
	<polygon class="st0" points="714.1,422 665.2,443.2 709.5,454.9 671,616.8 601.6,657.6 522.7,485.6 477.3,649.2 442,667.7 
		388.9,313.8 478.9,267.6 481.2,499.5 519.9,394.9 545.3,392.5 615.8,577.7 634.8,483.2 645.4,379.7 646.8,333.1 691.6,318.7 
		713.5,313.5 722.7,316.3 	"/>
	
		<linearGradient id="SVGID_00000005244358280404577710000010310699282330054077_" gradientUnits="userSpaceOnUse" x1="686.8423" y1="631.0803" x2="743.3129" y2="381.198">
		<stop  offset="9.776536e-02" style="stop-color:#9B3D63"/>
		<stop  offset="0.6647" style="stop-color:#DD804B"/>
		<stop  offset="1" style="stop-color:#FFA33F"/>
		<stop  offset="1" style="stop-color:#FF9C52;stop-opacity:0.8507"/>
		<stop  offset="1" style="stop-color:#FF8493;stop-opacity:0.31"/>
		<stop  offset="1" style="stop-color:#FF7BAC;stop-opacity:5.492697e-02"/>
	</linearGradient>
	
		<polygon style="fill:url(#SVGID_00000005244358280404577710000010310699282330054077_);stroke:#000D45;stroke-miterlimit:10;" points="
		758.7,446.5 768.2,490.4 737,456 703,496.2 715.9,447.8 679.9,442.3 720.7,426.5 734.6,386.7 746.5,425.5 782.9,421.3 	"/>
	
		<linearGradient id="SVGID_00000088128446820839469630000016527002249277915520_" gradientUnits="userSpaceOnUse" x1="715.8828" y1="447.7702" x2="715.8828" y2="447.7702">
		<stop  offset="9.776536e-02" style="stop-color:#9B3D63"/>
		<stop  offset="0.6647" style="stop-color:#DD804B"/>
		<stop  offset="1" style="stop-color:#FFA33F"/>
		<stop  offset="1" style="stop-color:#FF9C52;stop-opacity:0.8507"/>
		<stop  offset="1" style="stop-color:#FF8493;stop-opacity:0.31"/>
		<stop  offset="1" style="stop-color:#FF7BAC;stop-opacity:5.492697e-02"/>
	</linearGradient>
	<path style="fill:url(#SVGID_00000088128446820839469630000016527002249277915520_);stroke:#000D45;stroke-miterlimit:10;" d="
		M715.9,447.8"/>
	
		<linearGradient id="SVGID_00000075884258641397791080000012261627313870545548_" gradientUnits="userSpaceOnUse" x1="680.3156" y1="440.5253" x2="680.3156" y2="440.5253">
		<stop  offset="9.776536e-02" style="stop-color:#9B3D63"/>
		<stop  offset="0.6647" style="stop-color:#DD804B"/>
		<stop  offset="1" style="stop-color:#FFA33F"/>
		<stop  offset="1" style="stop-color:#FF9C52;stop-opacity:0.8507"/>
		<stop  offset="1" style="stop-color:#FF8493;stop-opacity:0.31"/>
		<stop  offset="1" style="stop-color:#FF7BAC;stop-opacity:5.492697e-02"/>
	</linearGradient>
	<path style="fill:url(#SVGID_00000075884258641397791080000012261627313870545548_);stroke:#000D45;stroke-miterlimit:10;" d="
		M680.3,440.5"/>
	
		<linearGradient id="SVGID_00000096023043482424514490000009087774125971171993_" gradientUnits="userSpaceOnUse" x1="715.5178" y1="637.5607" x2="771.9883" y2="387.6783">
		<stop  offset="9.776536e-02" style="stop-color:#F9328B"/>
		<stop  offset="0.6949" style="stop-color:#FD8057"/>
		<stop  offset="1" style="stop-color:#FFA33F"/>
		<stop  offset="1" style="stop-color:#FF9C52;stop-opacity:0.8507"/>
		<stop  offset="1" style="stop-color:#FF8493;stop-opacity:0.31"/>
		<stop  offset="1" style="stop-color:#FF7BAC;stop-opacity:5.492697e-02"/>
	</linearGradient>
	
		<polygon style="fill:url(#SVGID_00000096023043482424514490000009087774125971171993_);stroke:#000D45;stroke-miterlimit:10;" points="
		757.5,485.7 756.9,615 711.8,641.2 711.8,493.5 737,463.4 	"/>
	
		<linearGradient id="SVGID_00000021839015473469251310000004758387448467132326_" gradientUnits="userSpaceOnUse" x1="793.8449" y1="655.2617" x2="850.3155" y2="405.3794">
		<stop  offset="9.776536e-02" style="stop-color:#F9328B"/>
		<stop  offset="0.6949" style="stop-color:#FD8057"/>
		<stop  offset="1" style="stop-color:#FFA33F"/>
		<stop  offset="1" style="stop-color:#FF9C52;stop-opacity:0.8507"/>
		<stop  offset="1" style="stop-color:#FF8493;stop-opacity:0.31"/>
		<stop  offset="1" style="stop-color:#FF7BAC;stop-opacity:5.492697e-02"/>
	</linearGradient>
	
		<polygon style="fill:url(#SVGID_00000021839015473469251310000004758387448467132326_);stroke:#000D45;stroke-miterlimit:10;" points="
		903.4,515.2 888.1,537.1 846.4,590.1 842,484.8 833,474.6 808.1,501 808,612.6 767.2,641.2 771.6,489.6 762.8,448.3 800.8,425.3 
		804.4,459.1 828.1,431.3 839.6,430.8 	"/>
	
		<linearGradient id="SVGID_00000093869153678582310250000017277067580220476564_" gradientUnits="userSpaceOnUse" x1="909.8217" y1="681.4712" x2="966.2923" y2="431.5888">
		<stop  offset="9.776536e-02" style="stop-color:#F9328B"/>
		<stop  offset="0.6949" style="stop-color:#FD8057"/>
		<stop  offset="1" style="stop-color:#FFA33F"/>
		<stop  offset="1" style="stop-color:#FF9C52;stop-opacity:0.8507"/>
		<stop  offset="1" style="stop-color:#FF8493;stop-opacity:0.31"/>
		<stop  offset="1" style="stop-color:#FF7BAC;stop-opacity:5.492697e-02"/>
	</linearGradient>
	
		<polygon style="fill:url(#SVGID_00000093869153678582310250000017277067580220476564_);stroke:#000D45;stroke-miterlimit:10;" points="
		1051,594 977.8,578.8 944,526.1 911,583.2 852.1,611.9 913.1,510 909.3,505.1 844.9,431.3 894.8,420 939.6,473 975.4,409.6 
		1026.5,419.7 972.9,502.4 	"/>
	
		<linearGradient id="SVGID_00000076595778773629007030000014856971347699672233_" gradientUnits="userSpaceOnUse" x1="1030.0945" y1="495.8487" x2="1205.1533" y2="269.2604">
		<stop  offset="0.5168" style="stop-color:#D61C24"/>
		<stop  offset="0.594" style="stop-color:#D71F28;stop-opacity:0.9361"/>
		<stop  offset="0.678" style="stop-color:#DB2835;stop-opacity:0.8665"/>
		<stop  offset="0.7652" style="stop-color:#E2374B;stop-opacity:0.7944"/>
		<stop  offset="0.8546" style="stop-color:#EB4D6A;stop-opacity:0.7204"/>
		<stop  offset="0.9447" style="stop-color:#F76890;stop-opacity:0.6458"/>
		<stop  offset="1" style="stop-color:#FF7BAC;stop-opacity:0.6"/>
	</linearGradient>
	<path style="fill:url(#SVGID_00000076595778773629007030000014856971347699672233_);stroke:#000D45;stroke-miterlimit:10;" d="
		M1184,491c-0.4-11.9-5-21.5-11-34c-7.8-16.2-16.4-26.1-19-29c-9.1-10.2-13.8-15.3-22-18c-3-1-9.1-2.5-9-4c0.1-0.8,1.9-1,4-2
		c3-1.4,4.9-3.5,8-8c5.5-8,8.3-11.9,11-18c3.2-7.2,9.5-21.3,9-40c-0.6-22.8-10.9-38.8-17-48c-7.7-11.7-15.7-23.7-31-30
		c-21.9-9-43.3,0.2-50,3c-26.6,11.3-48.7,38.5-51,71c-0.3,3.6-2.2,38.8,23,63c6.2,6,12.4,9.7,17,12l-11,12l-33.6,56.2L984,501
		l34.8,44.9l21,16.2c5.3,1.8,12.9,4,22.3,5.4c5.6,0.8,69.1,9.1,103.9-32.4C1171,529,1184.7,512.7,1184,491z M1059,348
		c-0.7-8.4,1.1-14.8,2-18c2.9-10.2,7.8-16.7,12-22c2.5-3.2,5.1-6,9-8c1.3-0.7,3.3-1.7,6-2c5.4-0.7,9.7,1.7,12,3
		c7.7,4.4,10.9,11.6,12,14c3.4,7.7,2.8,14.5,2,24c-0.4,4.5-1,11-4,19c-2.9,7.6-5,13.3-11,17c-6.3,3.9-13.1,3.2-15,3
		c-0.9-0.1-5.8-0.7-11-4c-6.9-4.4-9.9-10.6-11-13C1059.7,355.9,1059.3,351.5,1059,348z M1130,495c-3.2,8.5-5.6,14.8-12,20
		c-11.5,9.4-25.8,7.2-27,7c-14.8-2.5-22.3-14.1-24-17c-6.9-11.6-4.8-23.4-4-28c0.8-4.2,2.8-8.8,7-18c5-11,7.7-14,11-16
		c3.7-2.3,7.4-2.8,9-3c5.6-0.7,9.9,0.7,14,2c4.5,1.5,12,4,19,11c3,3,9.2,9.2,11,19C1135.5,480.4,1133.1,486.9,1130,495z"/>
	
		<linearGradient id="SVGID_00000158017175956150108380000003972627421724424077_" gradientUnits="userSpaceOnUse" x1="1117.2537" y1="563.1866" x2="1292.3125" y2="336.5984">
		<stop  offset="0.5168" style="stop-color:#ED1C24"/>
		<stop  offset="0.594" style="stop-color:#EE1F28;stop-opacity:0.9361"/>
		<stop  offset="0.678" style="stop-color:#EF2835;stop-opacity:0.8665"/>
		<stop  offset="0.7652" style="stop-color:#F2374B;stop-opacity:0.7944"/>
		<stop  offset="0.8546" style="stop-color:#F64D6A;stop-opacity:0.7204"/>
		<stop  offset="0.9447" style="stop-color:#FB6890;stop-opacity:0.6458"/>
		<stop  offset="1" style="stop-color:#FF7BAC;stop-opacity:0.6"/>
	</linearGradient>
	<path style="fill:url(#SVGID_00000158017175956150108380000003972627421724424077_);stroke:#000D45;stroke-miterlimit:10;" d="
		M1340.7,460.7c-0.6-11.5-5.2-20.6-11.3-32.6c-7.8-15.5-16.2-24.8-18.8-27.6c-8.9-9.6-13.5-14.5-21.4-16.9c-2.9-0.9-8.8-2.2-8.7-3.7
		c0-0.8,1.8-1,3.8-2c2.8-1.4,4.6-3.5,7.5-7.9c5.1-7.8,7.6-11.7,10.1-17.6c2.9-7,8.5-20.8,7.7-38.8c-1.1-22-11.3-37.2-17.3-46
		c-7.7-11.1-15.5-22.6-30.3-28.3c-21.1-8.2-41.3,1.1-47.7,4c-25.1,11.5-45.6,38.3-47.1,69.7c-0.2,3.5-1.2,37.5,23.4,60.3
		c6.1,5.6,12.1,9.1,16.5,11.2l-10.2,11.9c-3.7,4.4-11.2,14.6-12.9,29.5c-0.8,7.3,0,13.5,1,18c-1.1,4.6-2.1,11.6-1,20
		c0.8,6.2,2.4,11.3,4,15c0.4,4.5,1.2,9.9,3,16c2.3,7.5,5.3,13.6,8,18l17,17c7.9,4.9,23.2,12.5,43,12c38.1-1,60.5-31.5,65.6-38.4
		C1330.9,495.1,1341.8,480.2,1340.7,460.7z M1218.2,325.5c-0.8-8.1,0.7-14.3,1.5-17.4c2.5-10,7.1-16.2,11-21.5
		c2.3-3.2,4.7-5.9,8.4-7.9c1.2-0.7,3.1-1.7,5.7-2.1c5.2-0.8,9.3,1.4,11.5,2.6c7.4,4.1,10.7,11,11.8,13.2c3.4,7.4,3,13.9,2.4,23.1
		c-0.3,4.3-0.7,10.7-3.4,18.4c-2.6,7.4-4.5,13-10.1,16.7c-5.9,3.9-12.4,3.4-14.2,3.2c-0.9-0.1-5.5-0.5-10.6-3.6
		c-6.7-4.1-9.7-10-10.8-12.3C1219,333.1,1218.5,328.9,1218.2,325.5z M1289.3,465.8c-2.9,8.3-5,14.4-11,19.6
		c-10.8,9.4-24.4,7.5-25.6,7.4c-14.2-2.1-21.6-13.1-23.3-15.9c-6.8-11.1-5.1-22.5-4.5-27c0.6-4.1,2.5-8.6,6.3-17.5
		c4.5-10.7,7-13.7,10.1-15.7c3.5-2.3,7-2.9,8.5-3.1c5.4-0.8,9.5,0.4,13.4,1.6c4.3,1.3,11.5,3.6,18.4,10.2c2.9,2.8,9,8.6,10.9,18.1
		C1294.2,451.5,1292,457.9,1289.3,465.8z"/>
	
		<linearGradient id="SVGID_00000010306928386174711060000018273665480703490716_" gradientUnits="userSpaceOnUse" x1="1382.1799" y1="481.9797" x2="1369.474" y2="500.3327">
		<stop  offset="0" style="stop-color:#FFFFFF"/>
		<stop  offset="1" style="stop-color:#1B1464"/>
	</linearGradient>
	<path style="fill:url(#SVGID_00000010306928386174711060000018273665480703490716_);stroke:#000D45;stroke-miterlimit:10;" d="
		M1388,512c-0.8,3.9-2.6,13.2-11,18c-8.7,5-19.4,2-26-3c-8.6-6.5-9.8-16.2-10-18c-0.2-1.3-1.2-12.4,7-21c1.2-1.3,8.3-8.8,18-8
		c5.6,0.4,9.8,3.4,12,5c1.6,1.1,4.6,3.3,7,7C1390.3,500.2,1388.5,509.6,1388,512z"/>
	
		<linearGradient id="SVGID_00000083086143847281189720000008808248213736496020_" gradientUnits="userSpaceOnUse" x1="1476.9796" y1="373.2621" x2="1466.6267" y2="390.2033" gradientTransform="matrix(0.9954 -9.541532e-02 9.541532e-02 0.9954 -40.7019 137.7936)">
		<stop  offset="0" style="stop-color:#FFFFFF"/>
		<stop  offset="0.957" style="stop-color:#1B1464"/>
	</linearGradient>
	<path style="fill:url(#SVGID_00000083086143847281189720000008808248213736496020_);stroke:#000D45;stroke-miterlimit:10;" d="
		M1478.6,393c-0.4,3.9-2,10.2-9.2,19c-6.4,7.7-19.2,3.8-26.2-0.5c-9.1-5.7-11.3-15.2-11.7-17c-0.3-1.3-2.3-12.2,5-21.6
		c1.1-1.4,7.4-9.5,17.2-9.7c5.6-0.1,10.1,2.5,12.4,3.8c1.7,1,4.9,2.9,7.6,6.3C1479.8,381.1,1478.8,390.6,1478.6,393z"/>
	
		<linearGradient id="SVGID_00000045586823282961167730000009186402253674538898_" gradientUnits="userSpaceOnUse" x1="1451.9277" y1="352.3446" x2="1406.4475" y2="422.3485">
		<stop  offset="0" style="stop-color:#FFFFFF"/>
		<stop  offset="1" style="stop-color:#1B1464"/>
	</linearGradient>
	
		<polygon style="fill:url(#SVGID_00000045586823282961167730000009186402253674538898_);stroke:#000D45;stroke-miterlimit:10;" points="
		1424.7,321.3 1432.1,512.6 1428.7,519.6 1412.8,524.5 1397.8,521.2 1404.6,516.1 1402.1,480.6 1398.8,391.2 1401.1,298.9 	"/>
	
		<linearGradient id="SVGID_00000175317599795409942550000008703294231690843313_" gradientUnits="userSpaceOnUse" x1="1550.39" y1="415.3418" x2="1460.5076" y2="474.1653" gradientTransform="matrix(0.9954 -9.541532e-02 9.541532e-02 0.9954 -40.7019 137.7936)">
		<stop  offset="0" style="stop-color:#FFFFFF"/>
		<stop  offset="1" style="stop-color:#1B1464"/>
	</linearGradient>
	
		<polygon style="fill:url(#SVGID_00000175317599795409942550000008703294231690843313_);stroke:#000D45;stroke-miterlimit:10;" points="
		1483.1,500.2 1454.4,509 1441.8,434.2 1470.1,418.6 	"/>
	
		<linearGradient id="SVGID_00000058568683649007743520000004293318405778742419_" gradientUnits="userSpaceOnUse" x1="1609.0793" y1="411.3983" x2="1519.1969" y2="470.2219" gradientTransform="matrix(0.9954 -9.541532e-02 9.541532e-02 0.9954 -40.7019 137.7936)">
		<stop  offset="0.2563" style="stop-color:#FFFFFF"/>
		<stop  offset="1" style="stop-color:#1B1464"/>
	</linearGradient>
	
		<polygon style="fill:url(#SVGID_00000058568683649007743520000004293318405778742419_);stroke:#000D45;stroke-miterlimit:10;" points="
		1565.8,413.3 1545.9,500.2 1524.9,506.5 1484.2,423.8 1508.4,421.2 1531,475.3 1544.5,415.4 	"/>
	
		<linearGradient id="SVGID_00000025436572543853201880000008023180974447511210_" gradientUnits="userSpaceOnUse" x1="1628.4012" y1="446.8215" x2="1538.5188" y2="505.645" gradientTransform="matrix(0.9954 -9.541532e-02 9.541532e-02 0.9954 -40.7019 137.7936)">
		<stop  offset="0" style="stop-color:#FFFFFF"/>
		<stop  offset="1" style="stop-color:#1B1464"/>
	</linearGradient>
	<path style="fill:url(#SVGID_00000025436572543853201880000008023180974447511210_);stroke:#000D45;stroke-miterlimit:10;" d="
		M1624.4,451c-1.1,2.3-2.9,5.5-5.5,9.1c-4.1,5.3-8,10.5-14.2,12.3c-9.3,2.6-18-3.9-19.6-5.2l-4-6.5l-1.8-5l5.4-3
		c0.9-0.7,33.7-18.1,33.7-18.1c0-0.1-3.5-7.7-4.3-9.4c-3.4-7.3-8.2-17.6-17-20.5c-8.3-2.7-18,1.8-23.4,7.3
		c-5.6,5.7-6.5,13.1-8.4,27.9c-1.6,12.5-2.3,18.7,0.5,26.1c3.8,9.9,11.3,15.4,14.8,17.7c2.8,1.8,10.5,6.2,20.7,6.1
		c19.6-0.3,31.2-17.5,32.3-19.2L1624.4,451z M1576.9,444.6l0.4-4.2l0.5-5.3l2.3-10c0.3-1.6,1.3-6.6,5.6-9.7c1-0.7,2.8-2,5.4-2.1
		c3.4-0.1,5.8,2,7.3,3.3c2.9,2.5,4.1,5.7,6,10.5c0.6,1.6,1.1,2.9,1.4,3.9L1576.9,444.6z"/>
	
		<linearGradient id="SVGID_00000051374334247510752010000013872807830945312903_" gradientUnits="userSpaceOnUse" x1="1014.1274" y1="421.2061" x2="1026.0419" y2="509.7128">
		<stop  offset="0.5168" style="stop-color:#D61C24"/>
		<stop  offset="0.6718" style="stop-color:#D82020;stop-opacity:0.8717"/>
		<stop  offset="0.8399" style="stop-color:#DE2D13;stop-opacity:0.7325"/>
		<stop  offset="1" style="stop-color:#E74100;stop-opacity:0.6"/>
	</linearGradient>
	
		<polygon style="fill:url(#SVGID_00000051374334247510752010000013872807830945312903_);stroke:#000D45;stroke-miterlimit:10;" points="
		1665.5,525.5 419.8,740.8 440.6,728.1 1338.1,577.7 	"/>
	
		<linearGradient id="SVGID_00000181077420993526331880000008962353569534280840_" gradientUnits="userSpaceOnUse" x1="976.726" y1="375.7049" x2="990.0005" y2="474.3156">
		<stop  offset="9.776536e-02" style="stop-color:#F9308C"/>
		<stop  offset="0.4868" style="stop-color:#DC1A9F"/>
		<stop  offset="1" style="stop-color:#B900B6"/>
		<stop  offset="1" style="stop-color:#CC21B3;stop-opacity:0.7688"/>
		<stop  offset="1" style="stop-color:#F162AE;stop-opacity:0.2839"/>
		<stop  offset="1" style="stop-color:#FF7BAC;stop-opacity:5.492697e-02"/>
	</linearGradient>
	
		<polygon style="fill:url(#SVGID_00000181077420993526331880000008962353569534280840_);stroke:#000D45;stroke-miterlimit:10;" points="
		418.7,808.5 444,788.5 443.4,785.2 1497.5,584.5 1617.5,557.5 	"/>
</g>
<line class="st17" x1="457" y1="-652" x2="456.8" y2="-644.9"/>
<polygon class="st18" points="501.6,-659.3 456.8,-644.9 457,-645 "/>
</svg>
